<?xml version="1.0" encoding="utf-8"?>
<svg version="1.1" xmlns:xlink="http://www.w3.org/1999/xlink" width="13px" height="13px" viewBox="243 132  13 13" xmlns="http://www.w3.org/2000/svg">
  <path d="M 249.5 132  C 253.14 132  256 134.86  256 138.5  C 256 142.14  253.14 145  249.5 145  C 245.86 145  243 142.14  243 138.5  C 243 134.86  245.86 132  249.5 132  Z " fill-rule="nonzero" fill="#ffffff" stroke="none" />
  <path d="M 249.5 132.5  C 252.86 132.5  255.5 135.14  255.5 138.5  C 255.5 141.86  252.86 144.5  249.5 144.5  C 246.14 144.5  243.5 141.86  243.5 138.5  C 243.5 135.14  246.14 132.5  249.5 132.5  Z " stroke-width="1" stroke="#797979" fill="none" />
  <path d="M 249.5 141.75  C 247.68 141.75  246.25 140.32  246.25 138.5  C 246.25 136.68  247.68 135.25  249.5 135.25  C 251.32 135.25  252.75 136.68  252.75 138.5  C 252.75 140.32  251.32 141.75  249.5 141.75  " fill-rule="nonzero" fill="#797979" stroke="none" />
</svg>