<?xml version="1.0" encoding="utf-8"?>
<svg version="1.1" xmlns:xlink="http://www.w3.org/1999/xlink" width="13px" height="13px" viewBox="308 132  13 13" xmlns="http://www.w3.org/2000/svg">
  <path d="M 314.5 132  C 318.14 132  321 134.86  321 138.5  C 321 142.14  318.14 145  314.5 145  C 310.86 145  308 142.14  308 138.5  C 308 134.86  310.86 132  314.5 132  Z " fill-rule="nonzero" fill="#f0f0f0" stroke="none" />
  <path d="M 314.5 132.5  C 317.86 132.5  320.5 135.14  320.5 138.5  C 320.5 141.86  317.86 144.5  314.5 144.5  C 311.14 144.5  308.5 141.86  308.5 138.5  C 308.5 135.14  311.14 132.5  314.5 132.5  Z " stroke-width="1" stroke="#797979" fill="none" />
  <path d="M 314.5 141.75  C 312.68 141.75  311.25 140.32  311.25 138.5  C 311.25 136.68  312.68 135.25  314.5 135.25  C 316.32 135.25  317.75 136.68  317.75 138.5  C 317.75 140.32  316.32 141.75  314.5 141.75  " fill-rule="nonzero" fill="#797979" stroke="none" />
</svg>