<?xml version="1.0" encoding="utf-8"?>
<svg version="1.1" xmlns:xlink="http://www.w3.org/1999/xlink" width="13px" height="13px" viewBox="243 177  13 13" xmlns="http://www.w3.org/2000/svg">
  <path d="M 249.5 177  C 253.14 177  256 179.86  256 183.5  C 256 187.14  253.14 190  249.5 190  C 245.86 190  243 187.14  243 183.5  C 243 179.86  245.86 177  249.5 177  Z " fill-rule="nonzero" fill="#ffffff" stroke="none" />
  <path d="M 249.5 177.5  C 252.86 177.5  255.5 180.14  255.5 183.5  C 255.5 186.86  252.86 189.5  249.5 189.5  C 246.14 189.5  243.5 186.86  243.5 183.5  C 243.5 180.14  246.14 177.5  249.5 177.5  Z " stroke-width="1" stroke="#797979" fill="none" />
  <path d="M 249.5 186.75  C 247.68 186.75  246.25 185.32  246.25 183.5  C 246.25 181.68  247.68 180.25  249.5 180.25  C 251.32 180.25  252.75 181.68  252.75 183.5  C 252.75 185.32  251.32 186.75  249.5 186.75  " fill-rule="nonzero" fill="#797979" stroke="none" />
</svg>