<?xml version="1.0" encoding="utf-8"?>
<svg version="1.1" xmlns:xlink="http://www.w3.org/1999/xlink" width="13px" height="13px" viewBox="308 177  13 13" xmlns="http://www.w3.org/2000/svg">
  <path d="M 314.5 177  C 318.14 177  321 179.86  321 183.5  C 321 187.14  318.14 190  314.5 190  C 310.86 190  308 187.14  308 183.5  C 308 179.86  310.86 177  314.5 177  Z " fill-rule="nonzero" fill="#ffffff" stroke="none" />
  <path d="M 314.5 177.5  C 317.86 177.5  320.5 180.14  320.5 183.5  C 320.5 186.86  317.86 189.5  314.5 189.5  C 311.14 189.5  308.5 186.86  308.5 183.5  C 308.5 180.14  311.14 177.5  314.5 177.5  Z " stroke-width="1" stroke="#797979" fill="none" />
  <path d="M 314.5 186.75  C 312.68 186.75  311.25 185.32  311.25 183.5  C 311.25 181.68  312.68 180.25  314.5 180.25  C 316.32 180.25  317.75 181.68  317.75 183.5  C 317.75 185.32  316.32 186.75  314.5 186.75  " fill-rule="nonzero" fill="#797979" stroke="none" />
</svg>