<?xml version="1.0" encoding="utf-8"?>
<svg version="1.1" xmlns:xlink="http://www.w3.org/1999/xlink" width="13px" height="13px" viewBox="243 222  13 13" xmlns="http://www.w3.org/2000/svg">
  <path d="M 249.5 222  C 253.14 222  256 224.86  256 228.5  C 256 232.14  253.14 235  249.5 235  C 245.86 235  243 232.14  243 228.5  C 243 224.86  245.86 222  249.5 222  Z " fill-rule="nonzero" fill="#ffffff" stroke="none" />
  <path d="M 249.5 222.5  C 252.86 222.5  255.5 225.14  255.5 228.5  C 255.5 231.86  252.86 234.5  249.5 234.5  C 246.14 234.5  243.5 231.86  243.5 228.5  C 243.5 225.14  246.14 222.5  249.5 222.5  Z " stroke-width="1" stroke="#797979" fill="none" />
  <path d="M 249.5 231.75  C 247.68 231.75  246.25 230.32  246.25 228.5  C 246.25 226.68  247.68 225.25  249.5 225.25  C 251.32 225.25  252.75 226.68  252.75 228.5  C 252.75 230.32  251.32 231.75  249.5 231.75  " fill-rule="nonzero" fill="#797979" stroke="none" />
</svg>