<?xml version="1.0" encoding="utf-8"?>
<svg version="1.1" xmlns:xlink="http://www.w3.org/1999/xlink" width="13px" height="13px" viewBox="308 222  13 13" xmlns="http://www.w3.org/2000/svg">
  <path d="M 314.5 222  C 318.14 222  321 224.86  321 228.5  C 321 232.14  318.14 235  314.5 235  C 310.86 235  308 232.14  308 228.5  C 308 224.86  310.86 222  314.5 222  Z " fill-rule="nonzero" fill="#ffffff" stroke="none" />
  <path d="M 314.5 222.5  C 317.86 222.5  320.5 225.14  320.5 228.5  C 320.5 231.86  317.86 234.5  314.5 234.5  C 311.14 234.5  308.5 231.86  308.5 228.5  C 308.5 225.14  311.14 222.5  314.5 222.5  Z " stroke-width="1" stroke="#797979" fill="none" />
  <path d="M 314.5 231.75  C 312.68 231.75  311.25 230.32  311.25 228.5  C 311.25 226.68  312.68 225.25  314.5 225.25  C 316.32 225.25  317.75 226.68  317.75 228.5  C 317.75 230.32  316.32 231.75  314.5 231.75  " fill-rule="nonzero" fill="#797979" stroke="none" />
</svg>