<?xml version="1.0" encoding="utf-8"?>
<svg version="1.1" xmlns:xlink="http://www.w3.org/1999/xlink" width="13px" height="13px" viewBox="243 267  13 13" xmlns="http://www.w3.org/2000/svg">
  <path d="M 249.5 267  C 253.14 267  256 269.86  256 273.5  C 256 277.14  253.14 280  249.5 280  C 245.86 280  243 277.14  243 273.5  C 243 269.86  245.86 267  249.5 267  Z " fill-rule="nonzero" fill="#f0f0f0" stroke="none" />
  <path d="M 249.5 267.5  C 252.86 267.5  255.5 270.14  255.5 273.5  C 255.5 276.86  252.86 279.5  249.5 279.5  C 246.14 279.5  243.5 276.86  243.5 273.5  C 243.5 270.14  246.14 267.5  249.5 267.5  Z " stroke-width="1" stroke="#797979" fill="none" />
  <path d="M 249.5 276.75  C 247.68 276.75  246.25 275.32  246.25 273.5  C 246.25 271.68  247.68 270.25  249.5 270.25  C 251.32 270.25  252.75 271.68  252.75 273.5  C 252.75 275.32  251.32 276.75  249.5 276.75  " fill-rule="nonzero" fill="#797979" stroke="none" />
</svg>