<?xml version="1.0" encoding="utf-8"?>
<svg version="1.1" xmlns:xlink="http://www.w3.org/1999/xlink" width="13px" height="13px" viewBox="308 267  13 13" xmlns="http://www.w3.org/2000/svg">
  <path d="M 314.5 267  C 318.14 267  321 269.86  321 273.5  C 321 277.14  318.14 280  314.5 280  C 310.86 280  308 277.14  308 273.5  C 308 269.86  310.86 267  314.5 267  Z " fill-rule="nonzero" fill="#ffffff" stroke="none" />
  <path d="M 314.5 267.5  C 317.86 267.5  320.5 270.14  320.5 273.5  C 320.5 276.86  317.86 279.5  314.5 279.5  C 311.14 279.5  308.5 276.86  308.5 273.5  C 308.5 270.14  311.14 267.5  314.5 267.5  Z " stroke-width="1" stroke="#797979" fill="none" />
  <path d="M 314.5 276.75  C 312.68 276.75  311.25 275.32  311.25 273.5  C 311.25 271.68  312.68 270.25  314.5 270.25  C 316.32 270.25  317.75 271.68  317.75 273.5  C 317.75 275.32  316.32 276.75  314.5 276.75  " fill-rule="nonzero" fill="#797979" stroke="none" />
</svg>