<?xml version="1.0" encoding="utf-8"?>
<svg version="1.1" xmlns:xlink="http://www.w3.org/1999/xlink" width="13px" height="13px" viewBox="243 311  13 13" xmlns="http://www.w3.org/2000/svg">
  <path d="M 249.5 311  C 253.14 311  256 313.86  256 317.5  C 256 321.14  253.14 324  249.5 324  C 245.86 324  243 321.14  243 317.5  C 243 313.86  245.86 311  249.5 311  Z " fill-rule="nonzero" fill="#ffffff" stroke="none" />
  <path d="M 249.5 311.5  C 252.86 311.5  255.5 314.14  255.5 317.5  C 255.5 320.86  252.86 323.5  249.5 323.5  C 246.14 323.5  243.5 320.86  243.5 317.5  C 243.5 314.14  246.14 311.5  249.5 311.5  Z " stroke-width="1" stroke="#797979" fill="none" />
  <path d="M 249.5 320.75  C 247.68 320.75  246.25 319.32  246.25 317.5  C 246.25 315.68  247.68 314.25  249.5 314.25  C 251.32 314.25  252.75 315.68  252.75 317.5  C 252.75 319.32  251.32 320.75  249.5 320.75  " fill-rule="nonzero" fill="#797979" stroke="none" />
</svg>