<?xml version="1.0" encoding="utf-8"?>
<svg version="1.1" xmlns:xlink="http://www.w3.org/1999/xlink" width="13px" height="13px" viewBox="308 311  13 13" xmlns="http://www.w3.org/2000/svg">
  <path d="M 314.5 311  C 318.14 311  321 313.86  321 317.5  C 321 321.14  318.14 324  314.5 324  C 310.86 324  308 321.14  308 317.5  C 308 313.86  310.86 311  314.5 311  Z " fill-rule="nonzero" fill="#ffffff" stroke="none" />
  <path d="M 314.5 311.5  C 317.86 311.5  320.5 314.14  320.5 317.5  C 320.5 320.86  317.86 323.5  314.5 323.5  C 311.14 323.5  308.5 320.86  308.5 317.5  C 308.5 314.14  311.14 311.5  314.5 311.5  Z " stroke-width="1" stroke="#797979" fill="none" />
  <path d="M 314.5 320.75  C 312.68 320.75  311.25 319.32  311.25 317.5  C 311.25 315.68  312.68 314.25  314.5 314.25  C 316.32 314.25  317.75 315.68  317.75 317.5  C 317.75 319.32  316.32 320.75  314.5 320.75  " fill-rule="nonzero" fill="#797979" stroke="none" />
</svg>