<?xml version="1.0" encoding="utf-8"?>
<svg version="1.1" xmlns:xlink="http://www.w3.org/1999/xlink" width="13px" height="13px" viewBox="156 210  13 13" xmlns="http://www.w3.org/2000/svg">
  <path d="M 162.5 210  C 166.14 210  169 212.86  169 216.5  C 169 220.14  166.14 223  162.5 223  C 158.86 223  156 220.14  156 216.5  C 156 212.86  158.86 210  162.5 210  Z " fill-rule="nonzero" fill="#f0f0f0" stroke="none" />
  <path d="M 162.5 210.5  C 165.86 210.5  168.5 213.14  168.5 216.5  C 168.5 219.86  165.86 222.5  162.5 222.5  C 159.14 222.5  156.5 219.86  156.5 216.5  C 156.5 213.14  159.14 210.5  162.5 210.5  Z " stroke-width="1" stroke="#797979" fill="none" />
  <path d="M 162.5 219.75  C 160.68 219.75  159.25 218.32  159.25 216.5  C 159.25 214.68  160.68 213.25  162.5 213.25  C 164.32 213.25  165.75 214.68  165.75 216.5  C 165.75 218.32  164.32 219.75  162.5 219.75  " fill-rule="nonzero" fill="#797979" stroke="none" />
</svg>