<?xml version="1.0" encoding="utf-8"?>
<svg version="1.1" xmlns:xlink="http://www.w3.org/1999/xlink" width="13px" height="13px" viewBox="291 210  13 13" xmlns="http://www.w3.org/2000/svg">
  <path d="M 297.5 210  C 301.14 210  304 212.86  304 216.5  C 304 220.14  301.14 223  297.5 223  C 293.86 223  291 220.14  291 216.5  C 291 212.86  293.86 210  297.5 210  Z " fill-rule="nonzero" fill="#f0f0f0" stroke="none" />
  <path d="M 297.5 210.5  C 300.86 210.5  303.5 213.14  303.5 216.5  C 303.5 219.86  300.86 222.5  297.5 222.5  C 294.14 222.5  291.5 219.86  291.5 216.5  C 291.5 213.14  294.14 210.5  297.5 210.5  Z " stroke-width="1" stroke="#797979" fill="none" />
  <path d="M 297.5 219.75  C 295.68 219.75  294.25 218.32  294.25 216.5  C 294.25 214.68  295.68 213.25  297.5 213.25  C 299.32 213.25  300.75 214.68  300.75 216.5  C 300.75 218.32  299.32 219.75  297.5 219.75  " fill-rule="nonzero" fill="#797979" stroke="none" />
</svg>