<?xml version="1.0" encoding="utf-8"?>
<svg version="1.1" xmlns:xlink="http://www.w3.org/1999/xlink" width="13px" height="13px" viewBox="411 126  13 13" xmlns="http://www.w3.org/2000/svg">
  <path d="M 417.5 126  C 421.14 126  424 128.86  424 132.5  C 424 136.14  421.14 139  417.5 139  C 413.86 139  411 136.14  411 132.5  C 411 128.86  413.86 126  417.5 126  Z " fill-rule="nonzero" fill="#ffffff" stroke="none" />
  <path d="M 417.5 126.5  C 420.86 126.5  423.5 129.14  423.5 132.5  C 423.5 135.86  420.86 138.5  417.5 138.5  C 414.14 138.5  411.5 135.86  411.5 132.5  C 411.5 129.14  414.14 126.5  417.5 126.5  Z " stroke-width="1" stroke="#797979" fill="none" />
  <path d="M 417.5 135.75  C 415.68 135.75  414.25 134.32  414.25 132.5  C 414.25 130.68  415.68 129.25  417.5 129.25  C 419.32 129.25  420.75 130.68  420.75 132.5  C 420.75 134.32  419.32 135.75  417.5 135.75  " fill-rule="nonzero" fill="#797979" stroke="none" />
</svg>